<?xml version="1.0" encoding="UTF-8"?>
<svg id="Layer_2" xmlns="http://www.w3.org/2000/svg" version="1.1" viewBox="0 0 720 720">
  <!-- Generator: Adobe Illustrator 29.5.0, SVG Export Plug-In . SVG Version: 2.1.0 Build 137)  -->
  <defs>
    <style>
      .st0 {
        fill: #15294c;
      }

      .st1 {
        fill: #b53e1c;
      }
    </style>
  </defs>
  <g>
    <path class="st0" d="M345.6,373.6c0,1,0,2,0,3,0,6.6,0,13.1.1,19.7,0,.8,0,1.5,0,2.2-.3,2.7-1.9,4.3-4.3,4.2-2.4,0-4-1.7-4-4.5,0-11.5-.1-23.1.1-34.6,0-1.5,1.3-3.6,2.7-4.4,2.1-1.4,4.1,0,5.7,1.7,7.9,8.5,15.9,17,23.8,25.5.6.7.9,1.6,1.3,2.5.4-.3.8-.5,1.2-.8,0-1,.1-1.9.1-2.9,0-6.9,0-13.9,0-20.8,0-3.7,1.4-5.6,4-5.6,2.7,0,4.2,1.9,4.2,5.4,0,11,0,22,0,32.9,0,2.3-.4,4.4-2.8,5.3-2.3.9-4.2-.2-5.8-1.9-7.8-8.4-15.6-16.7-23.4-25.1-.7-.7-1.1-1.7-1.7-2.6-.4.2-.8.5-1.2.7Z"/>
    <path class="st0" d="M220,380.8c0-5.5,0-11.1,0-16.6,0-3.9,1.2-5.1,5-5.1,5.7,0,11.4,0,17.2,0,12.7.2,21.6,9.3,21.6,21.8,0,11.7-9.2,21-21.3,21.3-5.8.2-11.6.1-17.4.1-3.9,0-5.1-1.2-5.1-5,0-5.5,0-11.1,0-16.6,0,0,0,0,0,0ZM236.8,367.1h0c-2.1,0-4.1,0-6.2,0-1.9-.1-2.4.7-2.4,2.5,0,7.5.1,15,0,22.5,0,1.8.7,2.5,2.5,2.4,3.9,0,7.9,0,11.8,0,7.6-.2,13-5.9,13.1-13.7,0-7.5-5.5-13.2-12.9-13.5-2,0-3.9,0-5.9,0Z"/>
    <path class="st0" d="M399.6,380.7c0-5.6,0-11.2,0-16.9,0-3.6,1.2-4.8,4.7-4.8,5.9,0,11.8-.1,17.7,0,9.9.3,18.3,6.7,20.7,15.7,2.5,9.4-1,18.9-9,24.1-3.6,2.4-7.7,3.4-12,3.5-5.8,0-11.6,0-17.4,0-3.4,0-4.7-1.3-4.7-4.8,0-5.6,0-11.2,0-16.9h0ZM407.7,380.7h0c0,3.7,0,7.3,0,11,0,1.8.4,2.7,2.5,2.7,4-.1,8.1,0,12.1,0,7.4-.2,12.8-5.8,12.9-13.2.1-7.7-5.2-13.7-12.8-14-4.1-.2-8.2,0-12.4-.1-1.9,0-2.5.7-2.4,2.5,0,3.7,0,7.5,0,11.2Z"/>
    <path class="st0" d="M526.8,378.3c1.1-.7,1.8-1.1,2.5-1.6,6.8-5.3,13.6-10.7,20.3-16,.2-.2.4-.4.7-.5,2.2-1.6,4.6-1.4,6,.4,1.4,1.8,1.2,4-.9,5.7-4.9,4-9.9,7.8-14.8,11.7-.8.6-1.6,1.3-2.7,2.2,2.4,2.1,4.5,4,6.7,5.9,3.6,3.1,7.2,6.1,10.7,9.1,2.3,2,2.7,4.2,1.1,6.1-1.5,1.8-3.9,2-6.2,0-5.6-4.7-11-9.6-16.6-14.4-.9-.8-2.7-1.8-3.1-1.5-1.6,1.3-3.4,2.9-3.9,4.7-.7,2.4-.1,5-.2,7.6,0,3.4-1.6,5.2-4.2,5.2-2.6,0-4-1.8-4-5.1,0-11.3,0-22.5,0-33.8,0-3.3,1.4-5.1,3.9-5.2,2.6-.1,4.3,1.7,4.4,5,.1,3.7,0,7.3,0,11,0,1,.1,2,.2,3.5Z"/>
    <path class="st0" d="M299.7,402.4c-4.8,0-9.6,0-14.4,0-3.5,0-4.8-1.3-4.8-4.7,0-5.4,0-10.9,0-16.3,0-3,1.5-4.7,4.4-4.7,9.7,0,19.3,0,29,0,2.7,0,4.1,1.6,4.1,4,0,2.5-1.5,3.9-4.4,3.9-7.3,0-14.6,0-21.9,0-2.4,0-3,.7-3,3.1.1,6.8,0,6.8,6.8,6.8,6.4,0,12.8,0,19.1,0,2.9,0,4.7,1.7,4.6,4.2,0,2.3-1.5,3.7-4.3,3.8-5.1,0-10.1,0-15.2,0h0Z"/>
    <path class="st0" d="M469.1,394.4c8.2,0,15.9,0,23.6,0,1,0,2.1,0,3.1,0,2.5.2,4.1,1.9,3.9,4.2-.2,2.5-1.7,3.7-4.1,3.7-6,0-12,0-18,0-4,0-8.1,0-12.1,0-3.1,0-4.5-1.3-4.5-4.5,0-5.5,0-11.1,0-16.6,0-3.2,1.4-4.7,4.6-4.7,9.6,0,19.1,0,28.7,0,2.7,0,4.3,1.8,4.2,4.2,0,2.3-1.6,3.7-4.4,3.7-7.3,0-14.6.1-21.9,0-2.7,0-3.5.8-3.2,3.4.2,2,0,4.1,0,6.5Z"/>
    <path class="st0" d="M182.1,402.4c-4.9,0-9.7,0-14.6,0-3.6,0-4.8-1.1-4.8-4.7,0-5.3,0-10.7,0-16,0-3.6,1.4-5.1,4.9-5.1,9.4,0,18.7,0,28.1,0,3.2,0,4.9,1.6,4.8,4.2,0,2.5-1.6,3.7-4.9,3.7-7.3,0-14.6,0-21.9,0-2.2,0-2.9.7-2.8,2.9.2,6.9,0,6.9,6.9,6.9,6.5,0,12.9,0,19.4,0,3.2,0,5.2,2.3,4.5,5-.6,2.3-2.4,3-4.5,3-5,0-9.9,0-14.9,0Z"/>
    <path class="st0" d="M299.9,359c4.8,0,9.5,0,14.3,0,3,0,4.7,1.5,4.8,3.9,0,2.5-1.6,4-4.6,4-9.8,0-19.7,0-29.5,0-2.9,0-4.5-1.5-4.5-3.9,0-2.5,1.6-4,4.7-4,5,0,9.9,0,14.9,0h0Z"/>
    <path class="st0" d="M479.9,367c-4.8,0-9.5,0-14.3,0-3.1,0-4.7-1.4-4.7-4,0-2.6,1.6-3.9,4.7-3.9,9.7,0,19.5,0,29.2,0,3,0,4.7,1.5,4.7,4,0,2.5-1.6,3.9-4.7,4-5,0-9.9,0-14.9,0Z"/>
    <path class="st0" d="M181.9,359.1c4.9,0,9.7,0,14.6,0,3.3,0,5,1.5,5,4,0,2.5-1.8,3.9-5.1,3.9-9.6,0-19.3,0-28.9,0-3.3,0-4.9-1.5-4.8-4.2,0-2.5,1.6-3.7,4.9-3.7,4.8,0,9.6,0,14.3,0Z"/>
  </g>
  <g>
    <path class="st1" d="M356.3,286c-5.7.5-11.5,1-17.2,1.5-1.9.2-3.1,1.1-4.1,2.6-3.4,5.2-6.9,10.4-10.2,15.7-1.2,2-2.8,2.8-5.1,2.7-4.3-.1-8.6,0-12.9,0-2,0-3.1.8-3.9,2.6-2.6,6.1-5.3,12.1-7.9,18.2-1.1,2.6-.9,3.3,1.3,4.9,4.1,3,8.1,5.9,12.2,8.9,2.4,1.7,3.6,1.4,4.7-1.3,3.5-7.9,7-15.9,10.4-23.9,1.1-2.5,2.5-3.7,5.3-3.5,3.7.2,7.4,0,11.1,0,1.9,0,3.3-.7,4.4-2.4,4.8-7.4,9.7-14.8,14.6-22.2.2-.4.5-.7.7-1.1.9-1.8.3-2.8-1.6-2.9-.5,0-1.1,0-1.6.1,0,0,0,0,0,0Z"/>
    <path class="st1" d="M363.7,286c5.7.5,11.5,1,17.2,1.5,1.9.2,3.1,1.1,4.1,2.6,3.4,5.2,6.9,10.4,10.2,15.7,1.2,2,2.8,2.8,5.1,2.7,4.3-.1,8.6,0,12.9,0,2,0,3.1.8,3.9,2.6,2.6,6.1,5.3,12.1,7.9,18.2,1.1,2.6.9,3.3-1.3,4.9-4.1,3-8.1,5.9-12.2,8.9-2.4,1.7-3.6,1.4-4.7-1.3-3.5-7.9-7-15.9-10.4-23.9-1.1-2.5-2.5-3.7-5.3-3.5-3.7.2-7.4,0-11.1,0-1.9,0-3.3-.7-4.4-2.4-4.8-7.4-9.7-14.8-14.6-22.2-.2-.4-.5-.7-.7-1.1-.9-1.8-.3-2.8,1.6-2.9.5,0,1.1,0,1.6.1,0,0,0,0,0,0Z"/>
  </g>
  <g>
    <path class="st1" d="M215.6,431.8h-4.4l-.7,2.1h-2.3l3.9-11h2.6l3.9,11h-2.3l-.7-2.1ZM215,430l-1.6-4.6-1.6,4.6h3.2Z"/>
    <path class="st1" d="M227.3,433.9l-2.4-4.3h-1v4.3h-2.2v-10.9h4.1c.8,0,1.6.1,2.2.4s1,.7,1.3,1.2c.3.5.4,1.1.4,1.7s-.2,1.4-.6,2c-.4.6-1,1-1.9,1.2l2.6,4.4h-2.5ZM223.9,427.9h1.8c.6,0,1-.1,1.3-.4.3-.3.4-.7.4-1.2s-.1-.9-.4-1.2c-.3-.3-.7-.4-1.3-.4h-1.8v3.2Z"/>
    <path class="st1" d="M233.5,425.5c.5-.9,1.1-1.5,2-2s1.8-.7,2.8-.7,2.3.3,3.2.9c.9.6,1.6,1.5,1.9,2.6h-2.5c-.3-.5-.6-.9-1.1-1.2-.5-.3-1-.4-1.6-.4s-1.2.1-1.7.4c-.5.3-.9.7-1.2,1.3-.3.5-.4,1.2-.4,1.9s.1,1.4.4,1.9c.3.5.7,1,1.2,1.3s1.1.4,1.7.4,1.1-.1,1.6-.4c.5-.3.8-.7,1.1-1.2h2.5c-.4,1.1-1,2-1.9,2.6s-2,.9-3.2.9-2-.2-2.8-.7-1.5-1.1-2-2-.7-1.8-.7-2.9.2-2,.7-2.9Z"/>
    <path class="st1" d="M256,422.9v10.9h-2.2v-4.7h-4.7v4.7h-2.2v-10.9h2.2v4.5h4.7v-4.5h2.2Z"/>
    <path class="st1" d="M261.9,422.9v10.9h-2.2v-10.9h2.2Z"/>
    <path class="st1" d="M273.1,422.9v1.8h-2.9v9.2h-2.2v-9.2h-2.9v-1.8h8Z"/>
    <path class="st1" d="M278.5,424.7v2.7h3.7v1.7h-3.7v2.9h4.2v1.8h-6.4v-11h6.4v1.8h-4.2Z"/>
    <path class="st1" d="M286.4,425.5c.5-.9,1.1-1.5,2-2s1.8-.7,2.8-.7,2.3.3,3.2.9c.9.6,1.6,1.5,1.9,2.6h-2.5c-.3-.5-.6-.9-1.1-1.2-.5-.3-1-.4-1.6-.4s-1.2.1-1.7.4c-.5.3-.9.7-1.2,1.3-.3.5-.4,1.2-.4,1.9s.1,1.4.4,1.9c.3.5.7,1,1.2,1.3s1.1.4,1.7.4,1.1-.1,1.6-.4c.5-.3.8-.7,1.1-1.2h2.5c-.4,1.1-1,2-1.9,2.6s-2,.9-3.2.9-2-.2-2.8-.7-1.5-1.1-2-2-.7-1.8-.7-2.9.2-2,.7-2.9Z"/>
    <path class="st1" d="M307.2,422.9v1.8h-2.9v9.2h-2.2v-9.2h-2.9v-1.8h8Z"/>
    <path class="st1" d="M324.1,433.9l-1.2-1.2c-1,.9-2.3,1.4-3.7,1.4s-1.5-.1-2.1-.4c-.6-.3-1.1-.7-1.4-1.2-.3-.5-.5-1.1-.5-1.8s.2-1.4.6-1.9,1-1,1.8-1.4c-.3-.3-.5-.7-.6-1s-.2-.7-.2-1,.1-1,.4-1.4c.3-.4.6-.7,1.1-.9.5-.2,1.1-.3,1.7-.3s1.2.1,1.7.4c.5.3.8.6,1.1,1s.3.9.3,1.4h-2.1c0-.3,0-.6-.3-.8-.2-.2-.4-.3-.7-.3s-.5,0-.7.3c-.2.2-.3.4-.3.7s0,.5.2.8.4.6.8.9l2.8,2.7s0,0,0,0h0c0,0,.9-1.6.9-1.6h2.3l-1.1,1.9c-.2.4-.4.8-.7,1.2l2.7,2.6h-2.7ZM321.6,431.3l-2.7-2.7c-1,.4-1.5,1.1-1.5,1.9s.2.9.5,1.2.8.5,1.4.5c.9,0,1.6-.3,2.3-.9Z"/>
    <path class="st1" d="M341.6,423.6c.9.5,1.5,1.1,2,1.9.5.8.7,1.8.7,2.9s-.2,2.1-.7,2.9c-.5.8-1.2,1.5-2,1.9-.9.5-1.9.7-3,.7h-3.8v-10.9h3.8c1.1,0,2.2.2,3,.7ZM341.2,431c.6-.6.9-1.5.9-2.7s-.3-2-.9-2.7c-.6-.6-1.5-1-2.7-1h-1.6v7.2h1.6c1.2,0,2-.3,2.7-.9Z"/>
    <path class="st1" d="M349.8,424.7v2.7h3.7v1.7h-3.7v2.9h4.2v1.8h-6.4v-11h6.4v1.8h-4.2Z"/>
    <path class="st1" d="M359.2,433.6c-.6-.3-1.1-.6-1.5-1.1-.4-.5-.5-1.1-.5-1.7h2.4c0,.4.2.8.5,1.1s.7.4,1.2.4.9-.1,1.2-.4c.3-.2.4-.6.4-1s0-.6-.3-.8c-.2-.2-.4-.4-.7-.5s-.7-.3-1.2-.4c-.7-.2-1.3-.4-1.7-.6-.4-.2-.8-.5-1.1-.9s-.5-1-.5-1.7.2-1.2.5-1.7c.3-.5.8-.8,1.4-1.1.6-.3,1.3-.4,2-.4,1.1,0,2,.3,2.8.8.7.5,1.1,1.3,1.2,2.3h-2.4c0-.4-.2-.7-.5-.9-.3-.2-.7-.4-1.2-.4s-.8.1-1,.3-.4.5-.4,1,0,.5.3.7.4.4.7.5.7.3,1.2.4c.7.2,1.3.4,1.7.6s.8.5,1.2.9c.3.4.5,1,.5,1.6s-.2,1.1-.5,1.6c-.3.5-.7.9-1.3,1.2-.6.3-1.3.4-2.1.4s-1.5-.1-2.1-.4Z"/>
    <path class="st1" d="M370.8,422.9v10.9h-2.2v-10.9h2.2Z"/>
    <path class="st1" d="M382.2,426.2c-.3-.5-.6-.8-1-1.1-.4-.2-1-.4-1.5-.4s-1.2.1-1.7.4c-.5.3-.9.7-1.2,1.3-.3.5-.4,1.2-.4,1.9s.1,1.4.4,1.9c.3.5.7,1,1.2,1.3s1.1.4,1.8.4,1.5-.2,2.1-.7.9-1.1,1.1-1.9h-3.8v-1.7h5.9v1.9c-.1.8-.5,1.5-.9,2.1-.5.6-1.1,1.2-1.9,1.6-.8.4-1.6.6-2.5.6s-2-.2-2.9-.7c-.9-.5-1.5-1.1-2-2s-.7-1.8-.7-2.9.2-2,.7-2.9c.5-.9,1.2-1.5,2-2,.9-.5,1.8-.7,2.8-.7s2.3.3,3.2.9c.9.6,1.5,1.4,1.9,2.5h-2.5Z"/>
    <path class="st1" d="M397.5,433.9h-2.2l-5-7.5v7.5h-2.2v-11h2.2l5,7.5v-7.5h2.2v11Z"/>
    <path class="st1" d="M403.5,424.7v2.7h3.7v1.7h-3.7v2.9h4.2v1.8h-6.4v-11h6.4v1.8h-4.2Z"/>
    <path class="st1" d="M416.8,433.9l-2.4-4.3h-1v4.3h-2.2v-10.9h4.1c.8,0,1.6.1,2.2.4.6.3,1,.7,1.3,1.2s.4,1.1.4,1.7-.2,1.4-.6,2-1,1-1.9,1.2l2.6,4.4h-2.5ZM413.4,427.9h1.8c.6,0,1-.1,1.3-.4.3-.3.4-.7.4-1.2s-.1-.9-.4-1.2c-.3-.3-.7-.4-1.3-.4h-1.8v3.2Z"/>
    <path class="st1" d="M423.2,422.9h2.3l-1.7,4h-1.5l.9-4Z"/>
    <path class="st1" d="M430.4,433.6c-.6-.3-1.1-.6-1.5-1.1-.4-.5-.5-1.1-.5-1.7h2.4c0,.4.2.8.5,1.1.3.3.7.4,1.2.4s.9-.1,1.2-.4c.3-.2.4-.6.4-1s0-.6-.3-.8c-.2-.2-.4-.4-.7-.5s-.7-.3-1.2-.4c-.7-.2-1.3-.4-1.7-.6-.4-.2-.8-.5-1.1-.9s-.5-1-.5-1.7.2-1.2.5-1.7c.3-.5.8-.8,1.4-1.1.6-.3,1.3-.4,2-.4,1.1,0,2,.3,2.8.8s1.1,1.3,1.2,2.3h-2.4c0-.4-.2-.7-.5-.9-.3-.2-.7-.4-1.2-.4s-.8.1-1,.3c-.3.2-.4.5-.4,1s0,.5.3.7.4.4.7.5c.3.1.7.3,1.2.4.7.2,1.3.4,1.7.6.5.2.8.5,1.2.9.3.4.5,1,.5,1.6s-.2,1.1-.5,1.6-.7.9-1.3,1.2c-.6.3-1.3.4-2.1.4s-1.5-.1-2.1-.4Z"/>
    <path class="st1" d="M445.3,425.5c.5-.9,1.2-1.5,2-2,.8-.5,1.8-.7,2.8-.7s2.3.3,3.2.9c.9.6,1.6,1.5,1.9,2.6h-2.5c-.3-.5-.6-.9-1.1-1.2-.5-.3-1-.4-1.6-.4s-1.2.1-1.7.4c-.5.3-.9.7-1.2,1.3-.3.5-.4,1.2-.4,1.9s.1,1.4.4,1.9c.3.5.7,1,1.2,1.3.5.3,1.1.4,1.7.4s1.1-.1,1.6-.4c.5-.3.8-.7,1.1-1.2h2.5c-.4,1.1-1,2-1.9,2.6s-2,.9-3.2.9-2-.2-2.8-.7c-.8-.5-1.5-1.1-2-2s-.7-1.8-.7-2.9.2-2,.7-2.9Z"/>
    <path class="st1" d="M467.8,422.9v10.9h-2.2v-4.7h-4.7v4.7h-2.2v-10.9h2.2v4.5h4.7v-4.5h2.2Z"/>
    <path class="st1" d="M473.8,433.2c-.9-.5-1.5-1.1-2-2s-.8-1.8-.8-2.9.3-2,.8-2.9c.5-.9,1.2-1.5,2-2,.9-.5,1.8-.7,2.8-.7s2,.2,2.8.7c.9.5,1.5,1.1,2,2,.5.9.7,1.8.7,2.9s-.2,2-.7,2.9c-.5.9-1.2,1.5-2,2-.9.5-1.8.7-2.8.7s-2-.2-2.8-.7ZM478.4,431.6c.5-.3.9-.7,1.2-1.3.3-.6.4-1.2.4-1.9s-.1-1.4-.4-1.9-.7-1-1.2-1.3c-.5-.3-1.1-.4-1.7-.4s-1.2.1-1.7.4c-.5.3-.9.7-1.2,1.3-.3.5-.4,1.2-.4,1.9s.1,1.4.4,1.9c.3.6.7,1,1.2,1.3s1.1.4,1.7.4,1.2-.1,1.7-.4Z"/>
    <path class="st1" d="M487.6,422.9v10.9h-2.2v-10.9h2.2Z"/>
    <path class="st1" d="M491.5,425.5c.5-.9,1.2-1.5,2-2,.8-.5,1.8-.7,2.8-.7s2.3.3,3.2.9c.9.6,1.6,1.5,1.9,2.6h-2.5c-.3-.5-.6-.9-1.1-1.2-.5-.3-1-.4-1.6-.4s-1.2.1-1.7.4c-.5.3-.9.7-1.2,1.3-.3.5-.4,1.2-.4,1.9s.1,1.4.4,1.9c.3.5.7,1,1.2,1.3.5.3,1.1.4,1.7.4s1.1-.1,1.6-.4c.5-.3.8-.7,1.1-1.2h2.5c-.4,1.1-1,2-1.9,2.6s-2,.9-3.2.9-2-.2-2.8-.7c-.8-.5-1.5-1.1-2-2s-.7-1.8-.7-2.9.2-2,.7-2.9Z"/>
    <path class="st1" d="M507.2,424.7v2.7h3.7v1.7h-3.7v2.9h4.2v1.8h-6.4v-11h6.4v1.8h-4.2Z"/>
  </g>
</svg>