<svg width="395" height="149" viewBox="0 0 395 149" fill="none" xmlns="http://www.w3.org/2000/svg">
<path d="M182.904 87.8C182.904 88.8 182.904 89.8 182.904 90.8C182.904 97.4 182.904 103.9 183.004 110.5C183.004 111.3 183.004 112 183.004 112.7C182.704 115.4 181.104 117 178.704 116.9C176.304 116.9 174.704 115.2 174.704 112.4C174.704 100.9 174.604 89.3 174.804 77.8C174.804 76.3 176.104 74.2 177.504 73.4C179.604 72 181.604 73.4 183.204 75.1C191.104 83.6 199.104 92.1 207.004 100.6C207.604 101.3 207.904 102.2 208.304 103.1C208.704 102.8 209.104 102.6 209.504 102.3C209.504 101.3 209.604 100.4 209.604 99.4C209.604 92.5 209.604 85.5 209.604 78.6C209.604 74.9 211.004 73 213.604 73C216.304 73 217.804 74.9 217.804 78.4C217.804 89.4 217.804 100.4 217.804 111.3C217.804 113.6 217.404 115.7 215.004 116.6C212.704 117.5 210.804 116.4 209.204 114.7C201.404 106.3 193.604 98 185.804 89.6C185.104 88.9 184.704 87.9 184.104 87C183.704 87.2 183.304 87.5 182.904 87.7V87.8Z" fill="#15294C"/>
<path d="M57.3044 95C57.3044 89.5 57.3044 83.9 57.3044 78.4C57.3044 74.5 58.5044 73.3 62.3044 73.3C68.0044 73.3 73.7044 73.3 79.5044 73.3C92.2044 73.5 101.104 82.6 101.104 95.1C101.104 106.8 91.9044 116.1 79.8044 116.4C74.0044 116.6 68.2044 116.5 62.4044 116.5C58.5044 116.5 57.3044 115.3 57.3044 111.5C57.3044 106 57.3044 100.4 57.3044 94.9V95ZM74.1044 81.3C72.0044 81.3 70.0044 81.3 67.9044 81.3C66.0044 81.2 65.5044 82 65.5044 83.8C65.5044 91.3 65.6044 98.8 65.5044 106.3C65.5044 108.1 66.2044 108.8 68.0044 108.7C71.9044 108.7 75.9044 108.7 79.8044 108.7C87.4044 108.5 92.8044 102.8 92.9044 95C92.9044 87.5 87.4044 81.8 80.0044 81.5C78.0044 81.5 76.1044 81.5 74.1044 81.5V81.3Z" fill="#15294C"/>
<path d="M236.904 94.9C236.904 89.3 236.904 83.7 236.904 78C236.904 74.4 238.104 73.2 241.604 73.2C247.504 73.2 253.404 73.1 259.304 73.2C269.204 73.5 277.604 79.9 280.004 88.9C282.504 98.3 279.004 107.8 271.004 113C267.404 115.4 263.304 116.4 259.004 116.5C253.204 116.5 247.404 116.5 241.604 116.5C238.204 116.5 236.904 115.2 236.904 111.7C236.904 106.1 236.904 100.5 236.904 94.8V94.9ZM245.004 94.9C245.004 98.6 245.004 102.2 245.004 105.9C245.004 107.7 245.404 108.6 247.504 108.6C251.504 108.5 255.604 108.6 259.604 108.6C267.004 108.4 272.404 102.8 272.504 95.4C272.604 87.7 267.304 81.7 259.704 81.4C255.604 81.2 251.504 81.4 247.304 81.3C245.404 81.3 244.804 82 244.904 83.8C244.904 87.5 244.904 91.3 244.904 95L245.004 94.9Z" fill="#15294C"/>
<path d="M364.104 92.5C365.204 91.8 365.904 91.4 366.604 90.9C373.404 85.6 380.204 80.2 386.904 74.9C387.104 74.7 387.304 74.5 387.604 74.4C389.804 72.8 392.204 73 393.604 74.8C395.004 76.6 394.804 78.8 392.704 80.5C387.804 84.5 382.804 88.3 377.904 92.2C377.104 92.8 376.304 93.5 375.204 94.4C377.604 96.5 379.704 98.4 381.904 100.3C385.504 103.4 389.104 106.4 392.604 109.4C394.904 111.4 395.304 113.6 393.704 115.5C392.204 117.3 389.804 117.5 387.504 115.5C381.904 110.8 376.504 105.9 370.904 101.1C370.004 100.3 368.204 99.3 367.804 99.6C366.204 100.9 364.404 102.5 363.904 104.3C363.204 106.7 363.804 109.3 363.704 111.9C363.704 115.3 362.104 117.1 359.504 117.1C356.904 117.1 355.504 115.3 355.504 112C355.504 100.7 355.504 89.5 355.504 78.2C355.504 74.9 356.904 73.1 359.404 73C362.004 72.9 363.704 74.7 363.804 78C363.904 81.7 363.804 85.3 363.804 89C363.804 90 363.904 91 364.004 92.5H364.104Z" fill="#15294C"/>
<path d="M137.004 116.6C132.204 116.6 127.404 116.6 122.604 116.6C119.104 116.6 117.804 115.3 117.804 111.9C117.804 106.5 117.804 101 117.804 95.6C117.804 92.6 119.304 90.9 122.204 90.9C131.904 90.9 141.504 90.9 151.204 90.9C153.904 90.9 155.304 92.5 155.304 94.9C155.304 97.4 153.804 98.8 150.904 98.8C143.604 98.8 136.304 98.8 129.004 98.8C126.604 98.8 126.004 99.5 126.004 101.9C126.104 108.7 126.004 108.7 132.804 108.7C139.204 108.7 145.604 108.7 151.904 108.7C154.804 108.7 156.604 110.4 156.504 112.9C156.504 115.2 155.004 116.6 152.204 116.7C147.104 116.7 142.104 116.7 137.004 116.7V116.6Z" fill="#15294C"/>
<path d="M306.404 108.6C314.604 108.6 322.304 108.6 330.004 108.6C331.004 108.6 332.104 108.6 333.104 108.6C335.604 108.8 337.204 110.5 337.004 112.8C336.804 115.3 335.304 116.5 332.904 116.5C326.904 116.5 320.904 116.5 314.904 116.5C310.904 116.5 306.804 116.5 302.804 116.5C299.704 116.5 298.304 115.2 298.304 112C298.304 106.5 298.304 100.9 298.304 95.4C298.304 92.2 299.704 90.7 302.904 90.7C312.504 90.7 322.004 90.7 331.604 90.7C334.304 90.7 335.904 92.5 335.804 94.9C335.804 97.2 334.204 98.6 331.404 98.6C324.104 98.6 316.804 98.7 309.504 98.6C306.804 98.6 306.004 99.4 306.304 102C306.504 104 306.304 106.1 306.304 108.5L306.404 108.6Z" fill="#15294C"/>
<path d="M19.4044 116.6C14.5044 116.6 9.70441 116.6 4.80441 116.6C1.20441 116.6 0.00440979 115.5 0.00440979 111.9C0.00440979 106.6 0.00440979 101.2 0.00440979 95.9C0.00440979 92.3 1.40442 90.8 4.90442 90.8C14.3044 90.8 23.6044 90.8 33.0044 90.8C36.2044 90.8 37.9044 92.4 37.8044 95C37.8044 97.5 36.2044 98.7 32.9044 98.7C25.6044 98.7 18.3044 98.7 11.0044 98.7C8.80441 98.7 8.10441 99.4 8.20441 101.6C8.40441 108.5 8.20442 108.5 15.1044 108.5C21.6044 108.5 28.0044 108.5 34.5044 108.5C37.7044 108.5 39.7044 110.8 39.0044 113.5C38.4044 115.8 36.6044 116.5 34.5044 116.5C29.5044 116.5 24.6044 116.5 19.6044 116.5L19.4044 116.6Z" fill="#15294C"/>
<path d="M137.204 73.2C142.004 73.2 146.704 73.2 151.504 73.2C154.504 73.2 156.204 74.7 156.304 77.1C156.304 79.6 154.704 81.1 151.704 81.1C141.904 81.1 132.004 81.1 122.204 81.1C119.304 81.1 117.704 79.6 117.704 77.2C117.704 74.7 119.304 73.2 122.404 73.2C127.404 73.2 132.304 73.2 137.304 73.2H137.204Z" fill="#15294C"/>
<path d="M317.204 81.2C312.404 81.2 307.704 81.2 302.904 81.2C299.804 81.2 298.204 79.8 298.204 77.2C298.204 74.6 299.804 73.3 302.904 73.3C312.604 73.3 322.404 73.3 332.104 73.3C335.104 73.3 336.804 74.8 336.804 77.3C336.804 79.8 335.204 81.2 332.104 81.3C327.104 81.3 322.204 81.3 317.204 81.3V81.2Z" fill="#15294C"/>
<path d="M19.2044 73.3C24.1044 73.3 28.9044 73.3 33.8044 73.3C37.1044 73.3 38.8044 74.8 38.8044 77.3C38.8044 79.8 37.0044 81.2 33.7044 81.2C24.1044 81.2 14.4044 81.2 4.80441 81.2C1.50441 81.2 -0.0955882 79.7 0.00441176 77C0.00441176 74.5 1.60442 73.3 4.90442 73.3C9.70442 73.3 14.5044 73.3 19.2044 73.3Z" fill="#15294C"/>
<path d="M193.604 0.200012C187.904 0.700012 182.104 1.20001 176.404 1.70001C174.504 1.90001 173.304 2.80002 172.304 4.30002C168.904 9.50002 165.404 14.7 162.104 20C160.904 22 159.304 22.8 157.004 22.7C152.704 22.6 148.404 22.7 144.104 22.7C142.104 22.7 141.004 23.5 140.204 25.3C137.604 31.4 134.904 37.4 132.304 43.5C131.204 46.1 131.404 46.8 133.604 48.4C137.704 51.4 141.704 54.3 145.804 57.3C148.204 59 149.404 58.7 150.504 56C154.004 48.1 157.504 40.1 160.904 32.1C162.004 29.6 163.404 28.4 166.204 28.6C169.904 28.8 173.604 28.6 177.304 28.6C179.204 28.6 180.604 27.9 181.704 26.2C186.504 18.8 191.404 11.4 196.304 4C196.504 3.6 196.804 3.30002 197.004 2.90002C197.904 1.10002 197.304 0.1 195.404 0C194.904 0 194.304 6.10203e-06 193.804 0.100006L193.604 0.200012Z" fill="#B53E1C"/>
<path d="M201.004 0.200012C206.704 0.700012 212.504 1.20001 218.204 1.70001C220.104 1.90001 221.304 2.80002 222.304 4.30002C225.704 9.50002 229.204 14.7 232.504 20C233.704 22 235.304 22.8 237.604 22.7C241.904 22.6 246.204 22.7 250.504 22.7C252.504 22.7 253.604 23.5 254.404 25.3C257.004 31.4 259.704 37.4 262.304 43.5C263.404 46.1 263.204 46.8 261.004 48.4C256.904 51.4 252.904 54.3 248.804 57.3C246.404 59 245.204 58.7 244.104 56C240.604 48.1 237.104 40.1 233.704 32.1C232.604 29.6 231.204 28.4 228.404 28.6C224.704 28.8 221.004 28.6 217.304 28.6C215.404 28.6 214.004 27.9 212.904 26.2C208.104 18.8 203.204 11.4 198.304 4C198.104 3.6 197.804 3.30002 197.604 2.90002C196.704 1.10002 197.304 0.1 199.204 0C199.704 0 200.304 6.10203e-06 200.804 0.100006L201.004 0.200012Z" fill="#B53E1C"/>
<path d="M52.9044 146H48.5044L47.8044 148.1H45.5044L49.4044 137.1H52.0044L55.9044 148.1H53.6044L52.9044 146ZM52.3044 144.2L50.7044 139.6L49.1044 144.2H52.3044Z" fill="#B53E1C"/>
<path d="M64.6044 148.1L62.2044 143.8H61.2044V148.1H59.0044V137.2H63.1044C63.9044 137.2 64.7044 137.3 65.3044 137.6C65.9044 137.9 66.3044 138.3 66.6044 138.8C66.9044 139.3 67.0044 139.9 67.0044 140.5C67.0044 141.1 66.8044 141.9 66.4044 142.5C66.0044 143.1 65.4044 143.5 64.5044 143.7L67.1044 148.1H64.6044ZM61.2044 142.1H63.0044C63.6044 142.1 64.0044 142 64.3044 141.7C64.6044 141.4 64.7044 141 64.7044 140.5C64.7044 140 64.6044 139.6 64.3044 139.3C64.0044 139 63.6044 138.9 63.0044 138.9H61.2044V142.1Z" fill="#B53E1C"/>
<path d="M70.8044 139.7C71.3044 138.8 71.9044 138.2 72.8044 137.7C73.7044 137.2 74.6044 137 75.6044 137C76.6044 137 77.9044 137.3 78.8044 137.9C79.7044 138.5 80.4044 139.4 80.7044 140.5H78.2044C77.9044 140 77.6044 139.6 77.1044 139.3C76.6044 139 76.1044 138.9 75.5044 138.9C74.9044 138.9 74.3044 139 73.8044 139.3C73.3044 139.6 72.9044 140 72.6044 140.6C72.3044 141.1 72.2044 141.8 72.2044 142.5C72.2044 143.2 72.3044 143.9 72.6044 144.4C72.9044 144.9 73.3044 145.4 73.8044 145.7C74.3044 146 74.9044 146.1 75.5044 146.1C76.1044 146.1 76.6044 146 77.1044 145.7C77.6044 145.4 77.9044 145 78.2044 144.5H80.7044C80.3044 145.6 79.7044 146.5 78.8044 147.1C77.9044 147.7 76.8044 148 75.6044 148C74.4044 148 73.6044 147.8 72.8044 147.3C72.0044 146.8 71.3044 146.2 70.8044 145.3C70.3044 144.4 70.1044 143.5 70.1044 142.4C70.1044 141.3 70.3044 140.4 70.8044 139.5V139.7Z" fill="#B53E1C"/>
<path d="M93.3044 137.1V148H91.1044V143.3H86.4044V148H84.2044V137.1H86.4044V141.6H91.1044V137.1H93.3044Z" fill="#B53E1C"/>
<path d="M99.2044 137.1V148H97.0044V137.1H99.2044Z" fill="#B53E1C"/>
<path d="M110.404 137.1V138.9H107.504V148.1H105.304V138.9H102.404V137.1H110.404Z" fill="#B53E1C"/>
<path d="M115.804 138.9V141.6H119.504V143.3H115.804V146.2H120.004V148H113.604V137H120.004V138.8H115.804V138.9Z" fill="#B53E1C"/>
<path d="M123.704 139.7C124.204 138.8 124.804 138.2 125.704 137.7C126.604 137.2 127.504 137 128.504 137C129.504 137 130.804 137.3 131.704 137.9C132.604 138.5 133.304 139.4 133.604 140.5H131.104C130.804 140 130.504 139.6 130.004 139.3C129.504 139 129.004 138.9 128.404 138.9C127.804 138.9 127.204 139 126.704 139.3C126.204 139.6 125.804 140 125.504 140.6C125.204 141.1 125.104 141.8 125.104 142.5C125.104 143.2 125.204 143.9 125.504 144.4C125.804 144.9 126.204 145.4 126.704 145.7C127.204 146 127.804 146.1 128.404 146.1C129.004 146.1 129.504 146 130.004 145.7C130.504 145.4 130.804 145 131.104 144.5H133.604C133.204 145.6 132.604 146.5 131.704 147.1C130.804 147.7 129.704 148 128.504 148C127.304 148 126.504 147.8 125.704 147.3C124.904 146.8 124.204 146.2 123.704 145.3C123.204 144.4 123.004 143.5 123.004 142.4C123.004 141.3 123.204 140.4 123.704 139.5V139.7Z" fill="#B53E1C"/>
<path d="M144.504 137.1V138.9H141.604V148.1H139.404V138.9H136.504V137.1H144.504Z" fill="#B53E1C"/>
<path d="M161.404 148.1L160.204 146.9C159.204 147.8 157.904 148.3 156.504 148.3C155.104 148.3 155.004 148.2 154.404 147.9C153.804 147.6 153.304 147.2 153.004 146.7C152.704 146.2 152.504 145.6 152.504 144.9C152.504 144.2 152.704 143.5 153.104 143C153.504 142.5 154.104 142 154.904 141.6C154.604 141.3 154.404 140.9 154.304 140.6C154.204 140.3 154.104 139.9 154.104 139.6C154.104 139.3 154.204 138.6 154.504 138.2C154.804 137.8 155.104 137.5 155.604 137.3C156.104 137.1 156.704 137 157.304 137C157.904 137 158.504 137.1 159.004 137.4C159.504 137.7 159.804 138 160.104 138.4C160.404 138.8 160.404 139.3 160.404 139.8H158.304C158.304 139.5 158.304 139.2 158.004 139C157.804 138.8 157.604 138.7 157.304 138.7C157.004 138.7 156.804 138.7 156.604 139C156.404 139.2 156.304 139.4 156.304 139.7C156.304 140 156.304 140.2 156.504 140.5C156.704 140.8 156.904 141.1 157.304 141.4L160.104 144.1L161.004 142.5H163.304L162.204 144.4C162.004 144.8 161.804 145.2 161.504 145.6L164.204 148.2H161.504L161.404 148.1ZM158.904 145.5L156.204 142.8C155.204 143.2 154.704 143.9 154.704 144.7C154.704 145.5 154.904 145.6 155.204 145.9C155.504 146.2 156.004 146.4 156.604 146.4C157.504 146.4 158.204 146.1 158.904 145.5Z" fill="#B53E1C"/>
<path d="M178.904 137.8C179.804 138.3 180.404 138.9 180.904 139.7C181.404 140.5 181.604 141.5 181.604 142.6C181.604 143.7 181.404 144.7 180.904 145.5C180.404 146.3 179.704 147 178.904 147.4C178.004 147.9 177.004 148.1 175.904 148.1H172.104V137.2H175.904C177.004 137.2 178.104 137.4 178.904 137.9V137.8ZM178.504 145.2C179.104 144.6 179.404 143.7 179.404 142.5C179.404 141.3 179.104 140.5 178.504 139.8C177.904 139.2 177.004 138.8 175.804 138.8H174.204V146H175.804C177.004 146 177.804 145.7 178.504 145.1V145.2Z" fill="#B53E1C"/>
<path d="M187.104 138.9V141.6H190.804V143.3H187.104V146.2H191.304V148H184.904V137H191.304V138.8H187.104V138.9Z" fill="#B53E1C"/>
<path d="M196.504 147.8C195.904 147.5 195.404 147.2 195.004 146.7C194.604 146.2 194.504 145.6 194.504 145H196.904C196.904 145.4 197.104 145.8 197.404 146.1C197.704 146.4 198.104 146.5 198.604 146.5C199.104 146.5 199.504 146.4 199.804 146.1C200.104 145.9 200.204 145.5 200.204 145.1C200.204 144.7 200.204 144.5 199.904 144.3C199.704 144.1 199.504 143.9 199.204 143.8C198.904 143.7 198.504 143.5 198.004 143.4C197.304 143.2 196.704 143 196.304 142.8C195.904 142.6 195.504 142.3 195.204 141.9C194.904 141.5 194.704 140.9 194.704 140.2C194.704 139.5 194.904 139 195.204 138.5C195.504 138 196.004 137.7 196.604 137.4C197.204 137.1 197.904 137 198.604 137C199.704 137 200.604 137.3 201.404 137.8C202.104 138.3 202.504 139.1 202.604 140.1H200.204C200.204 139.7 200.004 139.4 199.704 139.2C199.404 139 199.004 138.8 198.504 138.8C198.004 138.8 197.704 138.9 197.504 139.1C197.304 139.3 197.104 139.6 197.104 140.1C197.104 140.6 197.104 140.6 197.404 140.8C197.704 141 197.804 141.2 198.104 141.3C198.404 141.4 198.804 141.6 199.304 141.7C200.004 141.9 200.604 142.1 201.004 142.3C201.404 142.5 201.804 142.8 202.204 143.2C202.504 143.6 202.704 144.2 202.704 144.8C202.704 145.4 202.504 145.9 202.204 146.4C201.904 146.9 201.504 147.3 200.904 147.6C200.304 147.9 199.604 148 198.804 148C198.004 148 197.304 147.9 196.704 147.6L196.504 147.8Z" fill="#B53E1C"/>
<path d="M208.104 137.1V148H205.904V137.1H208.104Z" fill="#B53E1C"/>
<path d="M219.504 140.4C219.204 139.9 218.904 139.6 218.504 139.3C218.104 139.1 217.504 138.9 217.004 138.9C216.504 138.9 215.804 139 215.304 139.3C214.804 139.6 214.404 140 214.104 140.6C213.804 141.1 213.704 141.8 213.704 142.5C213.704 143.2 213.804 143.9 214.104 144.4C214.404 144.9 214.804 145.4 215.304 145.7C215.804 146 216.404 146.1 217.104 146.1C217.804 146.1 218.604 145.9 219.204 145.4C219.804 144.9 220.104 144.3 220.304 143.5H216.504V141.8H222.404V143.7C222.304 144.5 221.904 145.2 221.504 145.8C221.004 146.4 220.404 147 219.604 147.4C218.804 147.8 218.004 148 217.104 148C216.204 148 215.104 147.8 214.204 147.3C213.304 146.8 212.704 146.2 212.204 145.3C211.704 144.4 211.504 143.5 211.504 142.4C211.504 141.3 211.704 140.4 212.204 139.5C212.704 138.6 213.404 138 214.204 137.5C215.104 137 216.004 136.8 217.004 136.8C218.004 136.8 219.304 137.1 220.204 137.7C221.104 138.3 221.704 139.1 222.104 140.2H219.604L219.504 140.4Z" fill="#B53E1C"/>
<path d="M234.804 148.1H232.604L227.604 140.6V148.1H225.404V137.1H227.604L232.604 144.6V137.1H234.804V148.1Z" fill="#B53E1C"/>
<path d="M240.804 138.9V141.6H244.504V143.3H240.804V146.2H245.004V148H238.604V137H245.004V138.8H240.804V138.9Z" fill="#B53E1C"/>
<path d="M254.104 148.1L251.704 143.8H250.704V148.1H248.504V137.2H252.604C253.404 137.2 254.204 137.3 254.804 137.6C255.404 137.9 255.804 138.3 256.104 138.8C256.404 139.3 256.504 139.9 256.504 140.5C256.504 141.1 256.304 141.9 255.904 142.5C255.504 143.1 254.904 143.5 254.004 143.7L256.604 148.1H254.104ZM250.704 142.1H252.504C253.104 142.1 253.504 142 253.804 141.7C254.104 141.4 254.204 141 254.204 140.5C254.204 140 254.104 139.6 253.804 139.3C253.504 139 253.104 138.9 252.504 138.9H250.704V142.1Z" fill="#B53E1C"/>
<path d="M260.504 137.1H262.804L261.104 141.1H259.604L260.504 137.1Z" fill="#B53E1C"/>
<path d="M267.704 147.8C267.104 147.5 266.604 147.2 266.204 146.7C265.804 146.2 265.704 145.6 265.704 145H268.104C268.104 145.4 268.304 145.8 268.604 146.1C268.904 146.4 269.304 146.5 269.804 146.5C270.304 146.5 270.704 146.4 271.004 146.1C271.304 145.9 271.404 145.5 271.404 145.1C271.404 144.7 271.404 144.5 271.104 144.3C270.904 144.1 270.704 143.9 270.404 143.8C270.104 143.7 269.704 143.5 269.204 143.4C268.504 143.2 267.904 143 267.504 142.8C267.104 142.6 266.704 142.3 266.404 141.9C266.104 141.5 265.904 140.9 265.904 140.2C265.904 139.5 266.104 139 266.404 138.5C266.704 138 267.204 137.7 267.804 137.4C268.404 137.1 269.104 137 269.804 137C270.904 137 271.804 137.3 272.604 137.8C273.404 138.3 273.704 139.1 273.804 140.1H271.404C271.404 139.7 271.204 139.4 270.904 139.2C270.604 139 270.204 138.8 269.704 138.8C269.204 138.8 268.904 138.9 268.704 139.1C268.404 139.3 268.304 139.6 268.304 140.1C268.304 140.6 268.304 140.6 268.604 140.8C268.904 141 269.004 141.2 269.304 141.3C269.604 141.4 270.004 141.6 270.504 141.7C271.204 141.9 271.804 142.1 272.204 142.3C272.704 142.5 273.004 142.8 273.404 143.2C273.704 143.6 273.904 144.2 273.904 144.8C273.904 145.4 273.704 145.9 273.404 146.4C273.104 146.9 272.704 147.3 272.104 147.6C271.504 147.9 270.804 148 270.004 148C269.204 148 268.504 147.9 267.904 147.6L267.704 147.8Z" fill="#B53E1C"/>
<path d="M282.604 139.7C283.104 138.8 283.804 138.2 284.604 137.7C285.404 137.2 286.404 137 287.404 137C288.404 137 289.704 137.3 290.604 137.9C291.504 138.5 292.204 139.4 292.504 140.5H290.004C289.704 140 289.404 139.6 288.904 139.3C288.404 139 287.904 138.9 287.304 138.9C286.704 138.9 286.104 139 285.604 139.3C285.104 139.6 284.704 140 284.404 140.6C284.104 141.1 284.004 141.8 284.004 142.5C284.004 143.2 284.104 143.9 284.404 144.4C284.704 144.9 285.104 145.4 285.604 145.7C286.104 146 286.704 146.1 287.304 146.1C287.904 146.1 288.404 146 288.904 145.7C289.404 145.4 289.704 145 290.004 144.5H292.504C292.104 145.6 291.504 146.5 290.604 147.1C289.704 147.7 288.604 148 287.404 148C286.204 148 285.404 147.8 284.604 147.3C283.804 146.8 283.104 146.2 282.604 145.3C282.104 144.4 281.904 143.5 281.904 142.4C281.904 141.3 282.104 140.4 282.604 139.5V139.7Z" fill="#B53E1C"/>
<path d="M305.104 137.1V148H302.904V143.3H298.204V148H296.004V137.1H298.204V141.6H302.904V137.1H305.104Z" fill="#B53E1C"/>
<path d="M311.104 147.4C310.204 146.9 309.604 146.3 309.104 145.4C308.604 144.5 308.304 143.6 308.304 142.5C308.304 141.4 308.604 140.5 309.104 139.6C309.604 138.7 310.304 138.1 311.104 137.6C312.004 137.1 312.904 136.9 313.904 136.9C314.904 136.9 315.904 137.1 316.704 137.6C317.604 138.1 318.204 138.7 318.704 139.6C319.204 140.5 319.404 141.4 319.404 142.5C319.404 143.6 319.204 144.5 318.704 145.4C318.204 146.3 317.504 146.9 316.704 147.4C315.804 147.9 314.904 148.1 313.904 148.1C312.904 148.1 311.904 147.9 311.104 147.4ZM315.704 145.8C316.204 145.5 316.604 145.1 316.904 144.5C317.204 143.9 317.304 143.3 317.304 142.6C317.304 141.9 317.204 141.2 316.904 140.7C316.604 140.2 316.204 139.7 315.704 139.4C315.204 139.1 314.604 139 314.004 139C313.404 139 312.804 139.1 312.304 139.4C311.804 139.7 311.404 140.1 311.104 140.7C310.804 141.2 310.704 141.9 310.704 142.6C310.704 143.3 310.804 144 311.104 144.5C311.404 145.1 311.804 145.5 312.304 145.8C312.804 146.1 313.404 146.2 314.004 146.2C314.604 146.2 315.204 146.1 315.704 145.8Z" fill="#B53E1C"/>
<path d="M324.904 137.1V148H322.704V137.1H324.904Z" fill="#B53E1C"/>
<path d="M328.804 139.7C329.304 138.8 330.004 138.2 330.804 137.7C331.604 137.2 332.604 137 333.604 137C334.604 137 335.904 137.3 336.804 137.9C337.704 138.5 338.404 139.4 338.704 140.5H336.204C335.904 140 335.604 139.6 335.104 139.3C334.604 139 334.104 138.9 333.504 138.9C332.904 138.9 332.304 139 331.804 139.3C331.304 139.6 330.904 140 330.604 140.6C330.304 141.1 330.204 141.8 330.204 142.5C330.204 143.2 330.304 143.9 330.604 144.4C330.904 144.9 331.304 145.4 331.804 145.7C332.304 146 332.904 146.1 333.504 146.1C334.104 146.1 334.604 146 335.104 145.7C335.604 145.4 335.904 145 336.204 144.5H338.704C338.304 145.6 337.704 146.5 336.804 147.1C335.904 147.7 334.804 148 333.604 148C332.404 148 331.604 147.8 330.804 147.3C330.004 146.8 329.304 146.2 328.804 145.3C328.304 144.4 328.104 143.5 328.104 142.4C328.104 141.3 328.304 140.4 328.804 139.5V139.7Z" fill="#B53E1C"/>
<path d="M344.504 138.9V141.6H348.204V143.3H344.504V146.2H348.704V148H342.304V137H348.704V138.8H344.504V138.9Z" fill="#B53E1C"/>
</svg>
